<svg width="60" height="60" viewBox="0 0 60 60" fill="none" xmlns="http://www.w3.org/2000/svg">
<g clip-path="url(#clip0_288_29608)">
<rect width="60" height="60" fill="white"/>
<path d="M15.0126 27.333L14.6024 27.9484C9.88447 35.3329 10.9101 44.9739 17.269 51.1277C20.7562 54.82 25.6792 56.6661 30.6023 56.6661C30.6023 56.6661 30.6023 56.6661 15.0126 27.333Z" fill="#00A3FF"/>
<path opacity="0.6" d="M30.6016 36.1535L15.012 27.1279C30.6016 56.6662 30.6016 56.6662 30.6016 56.6662C30.6016 50.3072 30.6016 42.9227 30.6016 36.1535Z" fill="#00A3FF"/>
<path opacity="0.6" d="M46.1905 27.333L46.6007 27.9484C51.3186 35.3329 50.293 44.9739 43.9341 51.1277C40.2418 54.82 35.5239 56.6661 30.6008 56.6661C30.6008 56.6661 30.6008 56.6661 46.1905 27.333Z" fill="#00A3FF"/>
<path opacity="0.2" d="M30.6008 36.1535L46.1905 27.1279C30.6008 56.6662 30.6008 56.6662 30.6008 56.6662C30.6008 50.3072 30.6008 42.9227 30.6008 36.1535Z" fill="#00A3FF"/>
<path opacity="0.2" d="M30.6008 16.2559V31.6404L44.1392 24.0507L30.6008 16.2559Z" fill="#00A3FF"/>
<path opacity="0.6" d="M30.6016 16.2559L17.0632 24.0507L30.6016 31.6404V16.2559Z" fill="#00A3FF"/>
<path d="M30.6016 3.33301L17.0632 24.0508L30.6016 16.256V3.33301Z" fill="#00A3FF"/>
<path opacity="0.6" d="M30.6008 16.256L44.1392 24.0508L30.6008 3.33301V16.256Z" fill="#00A3FF"/>
</g>
<defs>
<clipPath id="clip0_288_29608">
<rect width="60" height="60" rx="30" fill="white"/>
</clipPath>
</defs>
</svg>
